<svg xmlns="http://www.w3.org/2000/svg" version="1.1" width="200px" height="200px" style="shape-rendering:geometricPrecision; text-rendering:geometricPrecision; image-rendering:optimizeQuality; fill-rule:evenodd; clip-rule:evenodd" xmlns:xlink="http://www.w3.org/1999/xlink">
<g><path style="opacity:0.777" fill="#0b0b0b" d="M 57.5,22.5 C 74.0922,21.1332 88.0922,26.4665 99.5,38.5C 123.85,16.6753 147.683,17.342 171,40.5C 179.865,52.772 183.198,66.4387 181,81.5C 176.809,100.884 168.142,117.884 155,132.5C 139.592,149.254 122.426,163.754 103.5,176C 100.833,176.667 98.1667,176.667 95.5,176C 69.799,159.967 48.299,139.467 31,114.5C 21.0065,98.5259 16.6731,81.1926 18,62.5C 23.3304,41.3367 36.4971,28.0033 57.5,22.5 Z"/></g>
<g><path style="opacity:1" fill="#eeeeee" d="M 56.5,26.5 C 74.359,24.3351 88.6923,30.3351 99.5,44.5C 117.567,23.6555 138.233,20.8221 161.5,36C 176.857,50.0859 181.691,67.2526 176,87.5C 171.288,103.188 163.621,117.188 153,129.5C 137.924,145.922 121.091,160.089 102.5,172C 100.5,172.667 98.5,172.667 96.5,172C 70.4241,155.925 48.9241,135.091 32,109.5C 21.9566,92.1952 19.2899,73.8619 24,54.5C 30.4226,39.9017 41.2559,30.5684 56.5,26.5 Z"/></g>
<g><path style="opacity:1" fill="#0e0d0f" d="M 59.5,30.5 C 76.9904,29.5786 90.3238,36.5786 99.5,51.5C 115.136,28.7388 134.802,24.5721 158.5,39C 172.282,51.6896 176.782,67.1896 172,85.5C 167.438,101.297 159.771,115.297 149,127.5C 134.395,143.619 117.895,157.285 99.5,168.5C 74.3257,153.494 53.4923,133.827 37,109.5C 29.8245,97.2965 25.9912,84.1298 25.5,70C 27.398,48.6085 38.7314,35.4418 59.5,30.5 Z"/></g>
<g><path style="opacity:1" fill="#f8f8f8" d="M 137.5,80.5 C 137.672,79.5084 137.338,78.8417 136.5,78.5C 139.126,74.381 139.126,70.2143 136.5,66C 137.409,64.2108 137.576,62.3774 137,60.5C 133.983,57.4653 132.317,53.7986 132,49.5C 131.333,51.5 131.333,53.5 132,55.5C 134.758,58.3381 135.758,61.6714 135,65.5C 133.578,63.3619 131.745,62.1953 129.5,62C 131.373,63.7038 133.04,65.5372 134.5,67.5C 134.33,68.8221 134.663,69.9887 135.5,71C 134.934,71.9947 134.267,72.828 133.5,73.5C 133.5,72.8333 133.167,72.5 132.5,72.5C 132.631,71.6236 132.298,70.9569 131.5,70.5C 127.963,68.7658 124.296,67.4325 120.5,66.5C 119.737,65.7321 118.737,65.2321 117.5,65C 118.833,64.6667 120.167,64.3333 121.5,64C 119.613,63.2204 117.946,63.3871 116.5,64.5C 111.67,66.6487 107.67,69.982 104.5,74.5C 102.192,74.0345 100.858,72.7012 100.5,70.5C 101.977,67.5601 103.144,64.5601 104,61.5C 102.171,63.1558 100.837,65.1558 100,67.5C 98.7695,64.2677 96.7695,61.6011 94,59.5C 95.1722,62.0746 96.5056,64.7413 98,67.5C 98.6776,69.5976 98.5109,71.5976 97.5,73.5C 96.8501,73.8039 96.1835,74.1373 95.5,74.5C 91.9254,69.082 87.0921,65.4153 81,63.5C 80.1667,63.6667 79.3333,63.8333 78.5,64C 79.8333,64.3333 81.1667,64.6667 82.5,65C 77.6068,66.3514 72.9402,68.1847 68.5,70.5C 67.5987,71.2905 66.9321,72.2905 66.5,73.5C 65.7326,72.828 65.0659,71.9947 64.5,71C 65.3366,69.9887 65.67,68.8221 65.5,67.5C 66.9599,65.5372 68.6266,63.7038 70.5,62C 68.255,62.1953 66.4216,63.3619 65,65.5C 64.3333,63.8333 64.3333,62.1667 65,60.5C 68.0199,57.3768 69.0199,53.7102 68,49.5C 67.6834,53.7986 66.0167,57.4653 63,60.5C 64.0239,64.0662 63.5239,67.3995 61.5,70.5C 60.5489,71.9187 60.2155,73.5853 60.5,75.5C 58.4646,69.5326 56.7979,63.366 55.5,57C 56.9066,49.0374 59.24,41.3707 62.5,34C 75.1051,32.8839 85.2718,37.3839 93,47.5C 95.4157,50.6628 97.5823,53.9961 99.5,57.5C 104.694,47.4727 112.361,39.9727 122.5,35C 127.661,33.3039 132.827,33.1372 138,34.5C 141.181,41.7103 143.348,49.2103 144.5,57C 142.273,65.4074 140.44,73.9074 139,82.5C 138.722,81.5842 138.222,80.9175 137.5,80.5 Z"/></g>
<g><path style="opacity:1" fill="#7d0f3e" d="M 57.5,34.5 C 59.2252,34.8425 59.7252,35.8425 59,37.5C 57.9614,36.7562 57.4614,35.7562 57.5,34.5 Z"/></g>
<g><path style="opacity:1" fill="#ab1455" d="M 140.5,34.5 C 143.001,34.5109 143.168,35.1776 141,36.5C 140.536,35.9056 140.369,35.2389 140.5,34.5 Z"/></g>
<g><path style="opacity:1" fill="#9c124d" d="M 53.5,39.5 C 56.0161,40.6004 57.0161,42.2671 56.5,44.5C 55.0476,43.0603 54.0476,41.3936 53.5,39.5 Z"/></g>
<g><path style="opacity:1" fill="#a71353" d="M 43.5,40.5 C 48.0314,43.847 51.5314,47.847 54,52.5C 49.8958,48.9046 46.3958,44.9046 43.5,40.5 Z"/></g>
<g><path style="opacity:1" fill="#98124b" d="M 145.5,40.5 C 146.239,40.369 146.906,40.5357 147.5,41C 143.529,47.1755 142.863,47.0089 145.5,40.5 Z"/></g>
<g><path style="opacity:1" fill="#881043" d="M 154.5,40.5 C 156.028,40.5173 156.528,41.184 156,42.5C 152.667,45.8333 149.333,49.1667 146,52.5C 145.333,51.8333 145.333,51.1667 146,50.5C 149.442,47.568 152.275,44.2347 154.5,40.5 Z"/></g>
<g><path style="opacity:1" fill="#b21458" d="M 43.5,49.5 C 44.6266,50.1217 45.6266,50.955 46.5,52C 44.5106,52.5192 43.5106,51.6859 43.5,49.5 Z"/></g>
<g><path style="opacity:1" fill="#b31559" d="M 155.5,50.5 C 156.239,50.369 156.906,50.5357 157.5,51C 156.534,52.6779 155.201,53.3446 153.5,53C 154.381,52.2917 155.047,51.4584 155.5,50.5 Z"/></g>
<g><path style="opacity:1" fill="#b11558" d="M 48.5,53.5 C 50.2959,54.7927 51.9625,56.2927 53.5,58C 50.8142,57.8228 49.1476,56.3228 48.5,53.5 Z"/></g>
<g><path style="opacity:1" fill="#aa1454" d="M 149.5,55.5 C 150.239,55.369 150.906,55.5357 151.5,56C 150.234,57.9827 148.568,58.9827 146.5,59C 147.71,57.9609 148.71,56.7942 149.5,55.5 Z"/></g>
<g><path style="opacity:1" fill="#a1a1a1" d="M 79.5,56.5 C 83.0479,56.0949 86.3812,56.5949 89.5,58C 86.1726,57.3129 82.8393,57.4796 79.5,58.5C 78.8333,58.3333 78.1667,58.1667 77.5,58C 78.4158,57.7216 79.0825,57.2216 79.5,56.5 Z"/></g>
<g><path style="opacity:1" fill="#969696" d="M 112.5,57.5 C 115.772,56.1492 119.106,56.3159 122.5,58C 119.2,57.9545 115.866,57.7878 112.5,57.5 Z"/></g>
<g><path style="opacity:1" fill="#ae1456" d="M 34.5,54.5 C 34.8966,53.475 35.5632,53.3083 36.5,54C 43.1667,58.6667 49.8333,63.3333 56.5,68C 48.8688,64.2471 41.5355,59.7471 34.5,54.5 Z"/></g>
<g><path style="opacity:1" fill="#911148" d="M 34.5,62.5 C 36.6209,61.8484 38.6209,62.5151 40.5,64.5C 40.1667,64.8333 39.8333,65.1667 39.5,65.5C 37.9713,64.2371 36.3046,63.2371 34.5,62.5 Z"/></g>
<g><path style="opacity:1" fill="#a61352" d="M 163.5,62.5 C 165.379,62.3932 165.712,62.8932 164.5,64C 159.698,65.9397 159.365,65.4397 163.5,62.5 Z"/></g>
<g><path style="opacity:1" fill="#0d0d0c" d="M 97.5,73.5 C 98.1667,73.5 98.5,73.8333 98.5,74.5C 97.2921,75.2341 95.9587,75.5674 94.5,75.5C 93.9232,79.9831 92.2565,83.9831 89.5,87.5C 87.6203,87.2291 86.287,87.8958 85.5,89.5C 80.9849,91.2794 76.3182,91.7794 71.5,91C 70.2351,89.6626 69.7351,88.1626 70,86.5C 70.956,87.5786 71.7894,88.7453 72.5,90C 73.5,90.6667 74.5,90.6667 75.5,90C 72.6323,87.7595 70.6323,84.9262 69.5,81.5C 70.3287,78.5314 70.4954,75.5314 70,72.5C 69.6667,73.8333 69.3333,75.1667 69,76.5C 68.5045,74.5273 68.3379,72.5273 68.5,70.5C 72.9402,68.1847 77.6068,66.3514 82.5,65C 81.1667,64.6667 79.8333,64.3333 78.5,64C 79.3333,63.8333 80.1667,63.6667 81,63.5C 87.0921,65.4153 91.9254,69.082 95.5,74.5C 96.1835,74.1373 96.8501,73.8039 97.5,73.5 Z"/></g>
<g><path style="opacity:1" fill="#0c0c0b" d="M 116.5,64.5 C 117.183,66.1765 118.517,66.8432 120.5,66.5C 124.296,67.4325 127.963,68.7658 131.5,70.5C 132.298,70.9569 132.631,71.6236 132.5,72.5C 131.437,76.333 130.604,76.333 130,72.5C 129.297,74.9291 129.463,77.2625 130.5,79.5C 129.806,83.3904 128.14,86.8904 125.5,90C 126.167,90.6667 126.833,90.6667 127.5,90C 128.211,88.7453 129.044,87.5786 130,86.5C 130.265,88.1626 129.765,89.6626 128.5,91C 123.647,91.8817 118.981,91.3817 114.5,89.5C 113.713,87.8958 112.38,87.2291 110.5,87.5C 107.744,83.9831 106.077,79.9831 105.5,75.5C 103.297,75.3964 101.297,74.7298 99.5,73.5C 99.3398,71.8008 99.5065,70.1341 100,68.5C 100.464,69.0944 100.631,69.7611 100.5,70.5C 100.858,72.7012 102.192,74.0345 104.5,74.5C 107.67,69.982 111.67,66.6487 116.5,64.5 Z"/></g>
<g><path style="opacity:1" fill="#595958" d="M 120.5,66.5 C 118.517,66.8432 117.183,66.1765 116.5,64.5C 117.946,63.3871 119.613,63.2204 121.5,64C 120.167,64.3333 118.833,64.6667 117.5,65C 118.737,65.2321 119.737,65.7321 120.5,66.5 Z"/></g>
<g><path style="opacity:1" fill="#2f2f2f" d="M 136.5,78.5 C 136.688,80.1033 136.188,81.4366 135,82.5C 134.781,78.8075 135.615,75.3075 137.5,72C 136.652,70.3336 135.652,68.8336 134.5,67.5C 133.04,65.5372 131.373,63.7038 129.5,62C 131.745,62.1953 133.578,63.3619 135,65.5C 135.758,61.6714 134.758,58.3381 132,55.5C 131.333,53.5 131.333,51.5 132,49.5C 132.317,53.7986 133.983,57.4653 137,60.5C 137.576,62.3774 137.409,64.2108 136.5,66C 139.126,70.2143 139.126,74.381 136.5,78.5 Z"/></g>
<g><path style="opacity:1" fill="#a41351" d="M 164.5,52.5 C 166.842,52.7748 166.842,53.6081 164.5,55C 157.993,59.0862 151.66,63.4196 145.5,68C 144.668,68.6877 144.002,68.521 143.5,67.5C 150.743,62.7236 157.743,57.7236 164.5,52.5 Z"/></g>
<g><path style="opacity:1" fill="#a51352" d="M 42.5,65.5 C 47.6049,67.8869 52.6049,70.5536 57.5,73.5C 56.21,74.4077 54.8767,74.241 53.5,73C 50.3272,70.9128 46.9939,69.0795 43.5,67.5C 42.7025,67.0431 42.3691,66.3764 42.5,65.5 Z"/></g>
<g><path style="opacity:1" fill="#2d2d2c" d="M 65.5,67.5 C 64.3479,68.8336 63.3479,70.3336 62.5,72C 64.0426,74.3302 64.5426,76.8302 64,79.5C 62.4511,76.6883 61.6178,73.6883 61.5,70.5C 63.5239,67.3995 64.0239,64.0662 63,60.5C 66.0167,57.4653 67.6834,53.7986 68,49.5C 69.0199,53.7102 68.0199,57.3768 65,60.5C 64.3333,62.1667 64.3333,63.8333 65,65.5C 66.4216,63.3619 68.255,62.1953 70.5,62C 68.6266,63.7038 66.9599,65.5372 65.5,67.5 Z"/></g>
<g><path style="opacity:1" fill="#373736" d="M 100.5,70.5 C 100.631,69.7611 100.464,69.0944 100,68.5C 99.5065,70.1341 99.3398,71.8008 99.5,73.5C 99.5,74.1667 99.1667,74.5 98.5,74.5C 98.5,73.8333 98.1667,73.5 97.5,73.5C 98.5109,71.5976 98.6776,69.5976 98,67.5C 96.5056,64.7413 95.1722,62.0746 94,59.5C 96.7695,61.6011 98.7695,64.2677 100,67.5C 100.837,65.1558 102.171,63.1558 104,61.5C 103.144,64.5601 101.977,67.5601 100.5,70.5 Z"/></g>
<g><path style="opacity:1" fill="#a21350" d="M 157.5,65.5 C 159.842,65.7748 159.842,66.6081 157.5,68C 152.588,70.3724 147.755,72.8724 143,75.5C 142.312,74.6683 142.479,74.0016 143.5,73.5C 148.555,71.3119 153.222,68.6453 157.5,65.5 Z"/></g>
<g><path style="opacity:1" fill="#efefef" d="M 65.5,67.5 C 65.67,68.8221 65.3366,69.9887 64.5,71C 65.0659,71.9947 65.7326,72.828 66.5,73.5C 66.6031,76.6358 67.6031,79.3025 69.5,81.5C 70.6323,84.9262 72.6323,87.7595 75.5,90C 74.5,90.6667 73.5,90.6667 72.5,90C 71.7894,88.7453 70.956,87.5786 70,86.5C 69.7351,88.1626 70.2351,89.6626 71.5,91C 76.3182,91.7794 80.9849,91.2794 85.5,89.5C 84.0313,91.1053 84.3646,91.6053 86.5,91C 87.7101,89.9609 88.7101,88.7942 89.5,87.5C 92.2565,83.9831 93.9232,79.9831 94.5,75.5C 95.9587,75.5674 97.2921,75.2341 98.5,74.5C 99.1667,74.5 99.5,74.1667 99.5,73.5C 101.297,74.7298 103.297,75.3964 105.5,75.5C 106.077,79.9831 107.744,83.9831 110.5,87.5C 111.562,89.7565 113.228,90.9232 115.5,91C 114.944,90.6174 114.611,90.1174 114.5,89.5C 118.981,91.3817 123.647,91.8817 128.5,91C 129.765,89.6626 130.265,88.1626 130,86.5C 129.044,87.5786 128.211,88.7453 127.5,90C 126.833,90.6667 126.167,90.6667 125.5,90C 128.14,86.8904 129.806,83.3904 130.5,79.5C 131.117,79.6107 131.617,79.944 132,80.5C 132.662,78.1873 133.162,75.854 133.5,73.5C 134.267,72.828 134.934,71.9947 135.5,71C 134.663,69.9887 134.33,68.8221 134.5,67.5C 135.652,68.8336 136.652,70.3336 137.5,72C 135.615,75.3075 134.781,78.8075 135,82.5C 136.188,81.4366 136.688,80.1033 136.5,78.5C 137.338,78.8417 137.672,79.5084 137.5,80.5C 138.066,84.7967 140.066,88.2967 143.5,91C 142.594,92.6995 142.261,94.5328 142.5,96.5C 141.833,96.5 141.167,96.5 140.5,96.5C 140.66,94.8008 140.494,93.1341 140,91.5C 138.798,93.6775 138.298,96.0108 138.5,98.5C 136.944,102.275 134.444,105.275 131,107.5C 127.61,106.268 127.777,105.434 131.5,105C 128.446,102.792 125.113,101.792 121.5,102C 119.668,103.489 118.835,105.322 119,107.5C 119.872,105.387 121.372,104.054 123.5,103.5C 126.028,104.169 126.028,105.002 123.5,106C 124.5,106.333 125.5,106.667 126.5,107C 124.365,107.876 123.031,109.376 122.5,111.5C 121.401,106.102 120.401,106.268 119.5,112C 119.528,113.07 119.861,113.903 120.5,114.5C 120.657,115.873 120.49,117.207 120,118.5C 119.178,116.212 118.511,113.878 118,111.5C 117.51,112.793 117.343,114.127 117.5,115.5C 116.71,114.391 116.21,113.058 116,111.5C 115.211,113.712 115.378,115.712 116.5,117.5C 116.771,119.38 116.104,120.713 114.5,121.5C 114.179,119.952 113.179,119.285 111.5,119.5C 110.955,115.828 110.622,116.162 110.5,120.5C 109.5,120.5 108.5,120.5 107.5,120.5C 107.649,119.448 107.483,118.448 107,117.5C 106.667,119.167 106.333,120.833 106,122.5C 106.335,114.935 104.335,113.935 100,119.5C 95.6649,113.935 93.6649,114.935 94,122.5C 93.6667,120.833 93.3333,119.167 93,117.5C 92.5172,118.448 92.3505,119.448 92.5,120.5C 91.5,120.5 90.5,120.5 89.5,120.5C 89.6495,119.448 89.4828,118.448 89,117.5C 87.6667,118.833 86.3333,120.167 85,121.5C 83.8118,120.437 83.3118,119.103 83.5,117.5C 84.6225,115.712 84.7891,113.712 84,111.5C 83.79,113.058 83.29,114.391 82.5,115.5C 82.6567,114.127 82.49,112.793 82,111.5C 81.4888,113.878 80.8221,116.212 80,118.5C 79.51,117.207 79.3433,115.873 79.5,114.5C 80.7645,112.228 80.5978,109.895 79,107.5C 78.79,109.058 78.29,110.391 77.5,111.5C 76.9688,109.376 75.6355,107.876 73.5,107C 76.7423,106.717 77.0756,105.883 74.5,104.5C 75.1667,104.167 75.8333,103.833 76.5,103.5C 78.6283,104.054 80.1283,105.387 81,107.5C 80.2676,101.497 77.1009,99.9968 71.5,103C 70.6721,103.915 69.6721,104.581 68.5,105C 72.2229,105.434 72.3895,106.268 69,107.5C 63.4418,103.728 60.4418,98.3944 60,91.5C 59.9504,93.744 59.1171,95.4107 57.5,96.5C 57.3367,94.1432 57.5034,91.8098 58,89.5C 60.8465,87.0416 62.1799,84.0416 62,80.5C 61.6667,81.1667 61.3333,81.8333 61,82.5C 60.5034,80.1902 60.3367,77.8568 60.5,75.5C 60.2155,73.5853 60.5489,71.9187 61.5,70.5C 61.6178,73.6883 62.4511,76.6883 64,79.5C 64.5426,76.8302 64.0426,74.3302 62.5,72C 63.3479,70.3336 64.3479,68.8336 65.5,67.5 Z"/></g>
<g><path style="opacity:1" fill="#9d124e" d="M 168.5,67.5 C 170.379,67.3932 170.712,67.8932 169.5,69C 160.246,73.4926 150.913,76.9926 141.5,79.5C 150.699,75.7292 159.699,71.7292 168.5,67.5 Z"/></g>
<g><path style="opacity:1" fill="#a31351" d="M 28.5,69.5 C 29.2506,68.4265 30.2506,68.2599 31.5,69C 40.6569,72.5495 49.6569,76.3828 58.5,80.5C 48.5688,77.5745 38.5688,73.9079 28.5,69.5 Z"/></g>
<g><path style="opacity:1" fill="#828282" d="M 68.5,70.5 C 68.3379,72.5273 68.5045,74.5273 69,76.5C 69.3333,75.1667 69.6667,73.8333 70,72.5C 70.4954,75.5314 70.3287,78.5314 69.5,81.5C 67.6031,79.3025 66.6031,76.6358 66.5,73.5C 66.9321,72.2905 67.5987,71.2905 68.5,70.5 Z"/></g>
<g><path style="opacity:1" fill="#7e0f3e" d="M 34.5,78.5 C 32.6883,78.2287 31.0217,77.562 29.5,76.5C 30.533,75.548 31.6996,75.548 33,76.5C 34.0299,76.8361 34.5299,77.5028 34.5,78.5 Z"/></g>
<g><path style="opacity:1" fill="#8e1146" d="M 168.5,75.5 C 169.376,75.3691 170.043,75.7025 170.5,76.5C 168.862,77.9584 167.195,78.2917 165.5,77.5C 166.602,76.8243 167.602,76.1577 168.5,75.5 Z"/></g>
<g><path style="opacity:1" fill="#6e6e6e" d="M 132.5,72.5 C 133.167,72.5 133.5,72.8333 133.5,73.5C 133.162,75.854 132.662,78.1873 132,80.5C 131.617,79.944 131.117,79.6107 130.5,79.5C 129.463,77.2625 129.297,74.9291 130,72.5C 130.604,76.333 131.437,76.333 132.5,72.5 Z"/></g>
<g><path style="opacity:1" fill="#3fb4e3" d="M 34.5,78.5 C 35.5585,77.3998 36.3918,76.0664 37,74.5C 37.8917,77.9518 39.5584,80.9518 42,83.5C 42.7484,92.1046 40.0817,93.4379 34,87.5C 33.5046,84.4686 33.6713,81.4686 34.5,78.5 Z"/></g>
<g><path style="opacity:1" fill="#3eb0de" d="M 158.5,91.5 C 156.782,89.0738 156.282,86.4071 157,83.5C 159.852,81.1294 161.686,78.1294 162.5,74.5C 166.39,80.0641 166.39,85.5641 162.5,91C 161.207,91.49 159.873,91.6567 158.5,91.5 Z"/></g>
<g><path style="opacity:1" fill="#9c124d" d="M 41.5,80.5 C 47.5803,80.5603 53.5803,82.0603 59.5,85C 53.3873,84.1385 47.3873,82.6385 41.5,80.5 Z"/></g>
<g><path style="opacity:1" fill="#9a124c" d="M 154.5,79.5 C 155.873,79.3433 157.207,79.51 158.5,80C 152.755,82.6942 146.755,84.3609 140.5,85C 145.23,83.1591 149.897,81.3257 154.5,79.5 Z"/></g>
<g><path style="opacity:1" fill="#7f0e3d" d="M 166.5,82.5 C 167.675,82.281 168.675,82.6143 169.5,83.5C 167.948,84.7979 166.948,84.4646 166.5,82.5 Z"/></g>
<g><path style="opacity:1" fill="#871043" d="M 29.5,84.5 C 30.3864,83.2241 31.3864,83.2241 32.5,84.5C 31.5754,85.5624 30.5754,85.5624 29.5,84.5 Z"/></g>
<g><path style="opacity:1" fill="#141413" d="M 108.5,96.5 C 108.723,98.3417 109.057,100.175 109.5,102C 109.4,104.37 108.4,106.203 106.5,107.5C 105.472,105.639 103.972,104.305 102,103.5C 101.667,104.167 101.333,104.833 101,105.5C 101.209,99.5537 100.876,93.5537 100,87.5C 99.1242,93.5537 98.7909,99.5537 99,105.5C 98.6667,104.833 98.3333,104.167 98,103.5C 96.0283,104.305 94.5283,105.639 93.5,107.5C 91.6002,106.203 90.6002,104.37 90.5,102C 90.9434,100.175 91.2767,98.3417 91.5,96.5C 95.3894,93.728 96.7228,90.0613 95.5,85.5C 98.5,84.1667 101.5,84.1667 104.5,85.5C 103.245,90.1658 104.578,93.8324 108.5,96.5 Z"/></g>
<g><path style="opacity:1" fill="#389ec5" d="M 50.5,87.5 C 49.5,87.5 48.5,87.5 47.5,87.5C 48.2458,83.69 49.2458,83.69 50.5,87.5 Z"/></g>
<g><path style="opacity:1" fill="#45c4f5" d="M 149.5,85.5 C 151.337,85.6395 151.67,86.3061 150.5,87.5C 149.702,87.0431 149.369,86.3764 149.5,85.5 Z"/></g>
<g><path style="opacity:1" fill="#7e0f3e" d="M 50.5,87.5 C 52.7505,87.1814 54.7505,87.6814 56.5,89C 55.5,89.1667 54.5,89.3333 53.5,89.5C 51.9704,89.3601 50.9704,88.6935 50.5,87.5 Z"/></g>
<g><path style="opacity:1" fill="#7f7f7f" d="M 110.5,87.5 C 112.38,87.2291 113.713,87.8958 114.5,89.5C 114.611,90.1174 114.944,90.6174 115.5,91C 113.228,90.9232 111.562,89.7565 110.5,87.5 Z"/></g>
<g><path style="opacity:1" fill="#868686" d="M 89.5,87.5 C 88.7101,88.7942 87.7101,89.9609 86.5,91C 84.3646,91.6053 84.0313,91.1053 85.5,89.5C 86.287,87.8958 87.6203,87.2291 89.5,87.5 Z"/></g>
<g><path style="opacity:1" fill="#871043" d="M 158.5,91.5 C 157.737,92.2679 156.737,92.7679 155.5,93C 151.5,93.6667 147.5,93.6667 143.5,93C 148.372,91.6115 153.372,91.1115 158.5,91.5 Z"/></g>
<g><path style="opacity:1" fill="#921148" d="M 41.5,92.5 C 46.4064,91.1517 51.4064,91.3184 56.5,93C 51.4626,93.6631 46.4626,93.4964 41.5,92.5 Z"/></g>
<g><path style="opacity:1" fill="#5b5b5b" d="M 140.5,96.5 C 139.833,97.1667 139.167,97.8333 138.5,98.5C 138.298,96.0108 138.798,93.6775 140,91.5C 140.494,93.1341 140.66,94.8008 140.5,96.5 Z"/></g>
<g><path style="opacity:1" fill="#40b4df" d="M 38.5,96.5 C 40.4646,96.9483 40.7979,97.9483 39.5,99.5C 38.6143,98.675 38.281,97.675 38.5,96.5 Z"/></g>
<g><path style="opacity:1" fill="#1e5065" d="M 57.5,96.5 C 57.4077,98.8477 56.4077,100.514 54.5,101.5C 54.5,100.5 54.5,99.5 54.5,98.5C 52.712,98.7852 51.0453,98.4519 49.5,97.5C 52.0865,96.52 54.7531,96.1866 57.5,96.5 Z"/></g>
<g><path style="opacity:1" fill="#616160" d="M 91.5,96.5 C 90.5,97.8333 89.5,99.1667 88.5,100.5C 88.5041,98.1579 89.3375,96.1579 91,94.5C 91.4643,95.0944 91.631,95.7611 91.5,96.5 Z"/></g>
<g><path style="opacity:1" fill="#626261" d="M 111.5,100.5 C 110.5,99.1667 109.5,97.8333 108.5,96.5C 108.393,94.6214 108.893,94.2881 110,95.5C 111.009,97.0249 111.509,98.6916 111.5,100.5 Z"/></g>
<g><path style="opacity:1" fill="#194151" d="M 151.5,95.5 C 151.737,96.791 151.404,97.791 150.5,98.5C 150.565,98.0618 150.399,97.7284 150,97.5C 148.491,98.0897 146.991,98.7564 145.5,99.5C 146.167,100.167 146.833,100.833 147.5,101.5C 147.167,101.833 146.833,102.167 146.5,102.5C 144.224,101.787 141.891,101.287 139.5,101C 142.936,100.773 143.936,99.2734 142.5,96.5C 145.609,96.7359 148.609,96.4025 151.5,95.5 Z"/></g>
<g><path style="opacity:1" fill="#3ba5cd" d="M 158.5,96.5 C 162.31,97.7542 162.31,98.7542 158.5,99.5C 158.5,98.5 158.5,97.5 158.5,96.5 Z"/></g>
<g><path style="opacity:1" fill="#40b5e5" d="M 50.5,102.5 C 50.634,104.292 50.3007,105.958 49.5,107.5C 47.8561,107.714 46.3561,107.38 45,106.5C 43.8016,102.191 44.8016,98.5245 48,95.5C 48.3793,98.0301 49.2126,100.363 50.5,102.5 Z"/></g>
<g><path style="opacity:1" fill="#3eb1df" d="M 151.5,95.5 C 154.628,98.1006 155.795,101.434 155,105.5C 152.048,108.442 149.881,107.942 148.5,104C 149.32,102.2 149.986,100.366 150.5,98.5C 151.404,97.791 151.737,96.791 151.5,95.5 Z"/></g>
<g><path style="opacity:1" fill="#2d2d2d" d="M 88.5,100.5 C 88.2594,106.904 91.2594,110.07 97.5,110C 95.0446,111.631 92.5446,111.797 90,110.5C 89.0187,108.04 88.1854,105.54 87.5,103C 87.528,101.93 87.8614,101.097 88.5,100.5 Z"/></g>
<g><path style="opacity:1" fill="#266e8b" d="M 36.5,101.5 C 38.604,101.201 40.604,101.534 42.5,102.5C 41.5,102.833 40.5,103.167 39.5,103.5C 37.9704,103.36 36.9704,102.693 36.5,101.5 Z"/></g>
<g><path style="opacity:1" fill="#23647e" d="M 156.5,101.5 C 158.604,101.201 160.604,101.534 162.5,102.5C 161.5,102.833 160.5,103.167 159.5,103.5C 157.97,103.36 156.97,102.693 156.5,101.5 Z"/></g>
<g><path style="opacity:1" fill="#2a7796" d="M 142.5,105.5 C 144.185,104.156 145.852,104.323 147.5,106C 145.735,106.64 144.068,106.473 142.5,105.5 Z"/></g>
<g><path style="opacity:1" fill="#191b1c" d="M 77.5,111.5 C 78.5511,112.222 79.2178,113.222 79.5,114.5C 79.3433,115.873 79.51,117.207 80,118.5C 80.8221,116.212 81.4888,113.878 82,111.5C 82.49,112.793 82.6567,114.127 82.5,115.5C 81.4891,117.402 81.3224,119.402 82,121.5C 82.21,119.942 82.71,118.609 83.5,117.5C 83.3118,119.103 83.8118,120.437 85,121.5C 86.3333,120.167 87.6667,118.833 89,117.5C 89.4828,118.448 89.6495,119.448 89.5,120.5C 88.9569,120.56 88.6236,120.893 88.5,121.5C 89.2427,122.182 89.9094,122.849 90.5,123.5C 90.5,123.833 90.5,124.167 90.5,124.5C 89.5489,125.919 89.2155,127.585 89.5,129.5C 89.8333,130.833 90.1667,132.167 90.5,133.5C 90.1667,133.5 89.8333,133.5 89.5,133.5C 88.1155,132.199 86.6155,132.199 85,133.5C 85.0464,131.687 84.8797,130.021 84.5,128.5C 83.8243,129.602 83.1577,130.602 82.5,131.5C 81.8333,131.5 81.5,131.167 81.5,130.5C 82.5735,129.749 82.7401,128.749 82,127.5C 81.3086,129.891 80.3086,129.891 79,127.5C 78.7679,128.737 78.2679,129.737 77.5,130.5C 78.1105,127.039 76.9439,124.372 74,122.5C 72.3616,118.278 71.1949,113.945 70.5,109.5C 69.209,109.263 68.209,109.596 67.5,110.5C 66.8333,111.167 66.1667,111.833 65.5,112.5C 64.0527,111.115 63.0527,111.448 62.5,113.5C 62.1667,113.5 61.8333,113.5 61.5,113.5C 60.3793,111.259 59.2126,108.925 58,106.5C 57.79,108.058 57.29,109.391 56.5,110.5C 56.5,109.167 56.5,107.833 56.5,106.5C 54.5453,105.07 52.8786,105.403 51.5,107.5C 50.8333,107.5 50.1667,107.5 49.5,107.5C 50.3007,105.958 50.634,104.292 50.5,102.5C 51.7409,100.069 52.9076,100.069 54,102.5C 54.3988,102.272 54.5654,101.938 54.5,101.5C 56.4077,100.514 57.4077,98.8477 57.5,96.5C 59.1171,95.4107 59.9504,93.744 60,91.5C 60.4418,98.3944 63.4418,103.728 69,107.5C 72.3895,106.268 72.2229,105.434 68.5,105C 69.6721,104.581 70.6721,103.915 71.5,103C 77.1009,99.9968 80.2676,101.497 81,107.5C 80.1283,105.387 78.6283,104.054 76.5,103.5C 75.8333,103.833 75.1667,104.167 74.5,104.5C 77.0756,105.883 76.7423,106.717 73.5,107C 75.6355,107.876 76.9688,109.376 77.5,111.5 Z"/></g>
<g><path style="opacity:1" fill="#2f86aa" d="M 56.5,106.5 C 54.7839,106.629 53.1172,106.962 51.5,107.5C 52.8786,105.403 54.5453,105.07 56.5,106.5 Z"/></g>
<g><path style="opacity:1" fill="#191919" d="M 111.5,100.5 C 112.896,103.845 112.23,106.845 109.5,109.5C 110.461,106.574 111.127,103.574 111.5,100.5 Z"/></g>
<g><path style="opacity:1" fill="#2e85a7" d="M 155.5,106.5 C 156.922,106.709 158.255,107.209 159.5,108C 157.537,108.844 156.204,108.344 155.5,106.5 Z"/></g>
<g><path style="opacity:1" fill="#297493" d="M 41.5,107.5 C 42.675,107.281 43.675,107.614 44.5,108.5C 43.277,109.614 41.9437,109.781 40.5,109C 41.056,108.617 41.3893,108.117 41.5,107.5 Z"/></g>
<g><path style="opacity:1" fill="#2d7e9f" d="M 60.5,107.5 C 65.0214,107.326 65.3548,107.993 61.5,109.5C 60.7025,109.043 60.3691,108.376 60.5,107.5 Z"/></g>
<g><path style="opacity:1" fill="#2e81a3" d="M 134.5,108.5 C 135.708,107.218 137.042,107.218 138.5,108.5C 137.443,108.906 136.109,108.906 134.5,108.5 Z"/></g>
<g><path style="opacity:1" fill="#2f85a7" d="M 134.5,111.5 C 135.497,110.287 136.497,110.454 137.5,112C 136.423,112.47 135.423,112.303 134.5,111.5 Z"/></g>
<g><path style="opacity:1" fill="#2d7e9f" d="M 149.5,112.5 C 147.011,112.461 145.511,111.461 145,109.5C 147.026,109.915 148.526,110.915 149.5,112.5 Z"/></g>
<g><path style="opacity:1" fill="#40b6e6" d="M 61.5,113.5 C 62.9709,119.831 60.6376,122.998 54.5,123C 53.4272,121.687 52.7605,120.187 52.5,118.5C 53.4181,115.594 54.7515,112.928 56.5,110.5C 57.29,109.391 57.79,108.058 58,106.5C 59.2126,108.925 60.3793,111.259 61.5,113.5 Z"/></g>
<g><path style="opacity:1" fill="#40b8e8" d="M 141.5,106.5 C 143.053,110.44 144.72,114.44 146.5,118.5C 145.854,123.602 143.521,124.602 139.5,121.5C 137.833,116.165 138.5,111.165 141.5,106.5 Z"/></g>
<g><path style="opacity:1" fill="#318cb1" d="M 65.5,112.5 C 64.391,112.557 63.391,112.89 62.5,113.5C 63.0527,111.448 64.0527,111.115 65.5,112.5 Z"/></g>
<g><path style="opacity:1" fill="#777776" d="M 79.5,114.5 C 79.2178,113.222 78.5511,112.222 77.5,111.5C 78.29,110.391 78.79,109.058 79,107.5C 80.5978,109.895 80.7645,112.228 79.5,114.5 Z"/></g>
<g><path style="opacity:1" fill="#727271" d="M 122.5,111.5 C 121.449,112.222 120.782,113.222 120.5,114.5C 119.861,113.903 119.528,113.07 119.5,112C 120.401,106.268 121.401,106.102 122.5,111.5 Z"/></g>
<g><path style="opacity:1" fill="#3dacd7" d="M 46.5,112.5 C 47.675,112.281 48.675,112.614 49.5,113.5C 47.9483,114.798 46.9483,114.465 46.5,112.5 Z"/></g>
<g><path style="opacity:1" fill="#3eb0db" d="M 149.5,112.5 C 150.675,112.281 151.675,112.614 152.5,113.5C 150.948,114.798 149.948,114.465 149.5,112.5 Z"/></g>
<g><path style="opacity:1" fill="#2c7c9c" d="M 133.5,114.5 C 135.363,114.846 136.196,115.846 136,117.5C 134.583,116.922 133.75,115.922 133.5,114.5 Z"/></g>
<g><path style="opacity:1" fill="#2d80a2" d="M 50.5,116.5 C 51.7733,117.077 51.7733,117.743 50.5,118.5C 49.549,119.326 48.549,119.492 47.5,119C 48.5707,118.148 49.5707,117.315 50.5,116.5 Z"/></g>
<g><path style="opacity:1" fill="#328eb3" d="M 148.5,117.5 C 149.849,116.203 151.182,116.37 152.5,118C 151.181,118.195 149.847,118.028 148.5,117.5 Z"/></g>
<g><path style="opacity:1" fill="#2f86a9" d="M 133.5,120.5 C 133.897,119.475 134.563,119.308 135.5,120C 137.255,120.72 138.089,121.887 138,123.5C 136.385,122.614 134.885,121.614 133.5,120.5 Z"/></g>
<g><path style="opacity:1" fill="#276d8a" d="M 50.5,121.5 C 52.337,121.639 52.6704,122.306 51.5,123.5C 50.7025,123.043 50.3691,122.376 50.5,121.5 Z"/></g>
<g><path style="opacity:1" fill="#2e84a6" d="M 59.5,124.5 C 61.2368,122.45 63.2368,120.617 65.5,119C 66.3317,118.312 66.9984,118.479 67.5,119.5C 65.1133,121.689 62.4466,123.356 59.5,124.5 Z"/></g>
<g><path style="opacity:1" fill="#3392b8" d="M 64.5,124.5 C 66.9752,124.747 66.9752,125.413 64.5,126.5C 63.537,126.03 63.537,125.363 64.5,124.5 Z"/></g>
<g><path style="opacity:1" fill="#2f85a7" d="M 140.5,125.5 C 142.263,124.666 143.93,125.166 145.5,127C 143.718,127.122 142.052,126.622 140.5,125.5 Z"/></g>
<g><path style="opacity:1" fill="#328fb3" d="M 59.5,124.5 C 58.3347,126.416 56.668,127.249 54.5,127C 55.9101,125.628 57.5767,124.795 59.5,124.5 Z"/></g>
<g><path style="opacity:1" fill="#3dacd7" d="M 59.5,127.5 C 60.675,127.281 61.675,127.614 62.5,128.5C 60.9483,129.798 59.9483,129.465 59.5,127.5 Z"/></g>
<g><path style="opacity:1" fill="#45c5f6" d="M 137.5,127.5 C 139.337,127.639 139.67,128.306 138.5,129.5C 137.702,129.043 137.369,128.376 137.5,127.5 Z"/></g>
<g><path style="opacity:1" fill="#2a7897" d="M 133.5,130.5 C 135.148,131.81 136.814,133.143 138.5,134.5C 135.853,134.895 134.187,133.562 133.5,130.5 Z"/></g>
<g><path style="opacity:1" fill="#f4f4f4" d="M 77.5,130.5 C 78.5819,132.339 79.4153,134.339 80,136.5C 80.1909,134.292 80.6909,132.292 81.5,130.5C 81.5,131.167 81.8333,131.5 82.5,131.5C 83.367,134.678 84.5336,137.011 86,138.5C 86.4935,136.866 86.6602,135.199 86.5,133.5C 87.5,133.5 88.5,133.5 89.5,133.5C 89.8333,133.5 90.1667,133.5 90.5,133.5C 90.3691,134.376 90.7025,135.043 91.5,135.5C 97.1667,134.167 102.833,134.167 108.5,135.5C 109.182,134.757 109.849,134.091 110.5,133.5C 111.5,133.5 112.5,133.5 113.5,133.5C 113.492,139.208 113.992,139.541 115,134.5C 116.007,136.742 116.841,136.408 117.5,133.5C 117.461,132.244 117.961,131.244 119,130.5C 119.333,132.167 119.667,133.833 120,135.5C 120.333,132.833 120.667,130.167 121,127.5C 122.043,131.226 122.543,130.893 122.5,126.5C 126.464,121.563 128.464,115.896 128.5,109.5C 129.833,109.5 131.167,109.5 132.5,109.5C 131.228,115.495 131.228,121.495 132.5,127.5C 131.921,134.246 128.255,137.746 121.5,138C 119.333,140.833 117.167,143.667 115,146.5C 113.503,148.677 111.503,150.01 109,150.5C 105.898,149.521 102.731,148.855 99.5,148.5C 96.165,149.353 92.8316,149.853 89.5,150C 85.5214,146.352 81.8547,142.352 78.5,138C 68.8501,136.174 65.8501,130.674 69.5,121.5C 68.8314,117.815 68.1647,114.148 67.5,110.5C 68.209,109.596 69.209,109.263 70.5,109.5C 71.1949,113.945 72.3616,118.278 74,122.5C 76.9439,124.372 78.1105,127.039 77.5,130.5 Z"/></g>
<g><path style="opacity:1" fill="#707070" d="M 81.5,130.5 C 80.6909,132.292 80.1909,134.292 80,136.5C 79.4153,134.339 78.5819,132.339 77.5,130.5C 78.2679,129.737 78.7679,128.737 79,127.5C 80.3086,129.891 81.3086,129.891 82,127.5C 82.7401,128.749 82.5735,129.749 81.5,130.5 Z"/></g>
<g><path style="opacity:1" fill="#d3d3d3" d="M 86.5,128.5 C 88.4646,128.948 88.7979,129.948 87.5,131.5C 86.6143,130.675 86.281,129.675 86.5,128.5 Z"/></g>
<g><path style="opacity:1" fill="#121212" d="M 99.5,120.5 C 99.8333,120.5 100.167,120.5 100.5,120.5C 100.5,123.167 100.5,125.833 100.5,128.5C 102.099,128.768 103.432,128.434 104.5,127.5C 105.29,126.391 105.79,125.058 106,123.5C 106.21,125.058 106.71,126.391 107.5,127.5C 107.5,128.167 107.167,128.5 106.5,128.5C 105.094,128.973 104.427,129.973 104.5,131.5C 104.167,131.5 103.833,131.5 103.5,131.5C 103.179,129.952 102.179,129.285 100.5,129.5C 100.5,130.833 100.5,132.167 100.5,133.5C 99.8333,133.5 99.5,133.167 99.5,132.5C 99.5,131.5 99.5,130.5 99.5,129.5C 97.8212,129.285 96.8212,129.952 96.5,131.5C 96.1667,131.5 95.8333,131.5 95.5,131.5C 95.573,129.973 94.9063,128.973 93.5,128.5C 93.3398,126.801 93.5065,125.134 94,123.5C 94.21,125.058 94.71,126.391 95.5,127.5C 96.5676,128.434 97.901,128.768 99.5,128.5C 99.5,125.833 99.5,123.167 99.5,120.5 Z"/></g>
<g><path style="opacity:1" fill="#d8d8d8" d="M 89.5,129.5 C 90.1667,129.5 90.8333,129.5 91.5,129.5C 91.5394,130.583 91.8728,131.583 92.5,132.5C 92.0431,133.298 91.3764,133.631 90.5,133.5C 90.1667,132.167 89.8333,130.833 89.5,129.5 Z"/></g>
<g><path style="opacity:1" fill="#9c9c9c" d="M 119.5,120.5 C 120.497,120.47 121.164,120.97 121.5,122C 117.332,126.682 116.665,126.182 119.5,120.5 Z"/></g>
<g><path style="opacity:1" fill="#fefffe" d="M 109.5,123.5 C 109.843,125.483 109.176,126.817 107.5,127.5C 107.157,125.517 107.824,124.183 109.5,123.5 Z"/></g>
<g><path style="opacity:1" fill="#fefffe" d="M 90.5,123.5 C 91.5862,123.62 92.2528,124.287 92.5,125.5C 92.1667,126.167 91.8333,126.833 91.5,127.5C 90.6143,126.675 90.281,125.675 90.5,124.5C 90.5,124.167 90.5,123.833 90.5,123.5 Z"/></g>
<g><path style="opacity:1" fill="#f6f6f6" d="M 112.5,121.5 C 113.434,122.568 113.768,123.901 113.5,125.5C 113.5,125.833 113.5,126.167 113.5,126.5C 112.105,128.054 111.439,127.721 111.5,125.5C 111.846,124.151 112.179,122.817 112.5,121.5 Z"/></g>
<g><path style="opacity:1" fill="#f5f5f5" d="M 86.5,121.5 C 88.2385,123.119 88.7385,125.119 88,127.5C 86.6814,125.75 86.1814,123.75 86.5,121.5 Z"/></g>
<g><path style="opacity:1" fill="#939392" d="M 78.5,120.5 C 81.3334,121.288 82.3334,122.955 81.5,125.5C 79.679,124.272 78.679,122.606 78.5,120.5 Z"/></g>
<g><path style="opacity:1" fill="#e9e9e9" d="M 104.5,127.5 C 103.432,128.434 102.099,128.768 100.5,128.5C 100.5,125.833 100.5,123.167 100.5,120.5C 101.482,119.859 102.482,119.193 103.5,118.5C 104.484,121.428 104.817,124.428 104.5,127.5 Z"/></g>
<g><path style="opacity:1" fill="#ebebeb" d="M 99.5,120.5 C 99.5,123.167 99.5,125.833 99.5,128.5C 97.901,128.768 96.5676,128.434 95.5,127.5C 95.1826,124.428 95.5159,121.428 96.5,118.5C 97.5178,119.193 98.5178,119.859 99.5,120.5 Z"/></g>
<g><path style="opacity:1" fill="#595958" d="M 114.5,121.5 C 116.351,122.866 116.684,124.533 115.5,126.5C 114.817,126.137 114.15,125.804 113.5,125.5C 113.768,123.901 113.434,122.568 112.5,121.5C 112.565,121.062 112.399,120.728 112,120.5C 111.302,121.691 110.469,122.691 109.5,123.5C 107.824,124.183 107.157,125.517 107.5,127.5C 106.71,126.391 106.21,125.058 106,123.5C 105.79,125.058 105.29,126.391 104.5,127.5C 104.817,124.428 104.484,121.428 103.5,118.5C 102.482,119.193 101.482,119.859 100.5,120.5C 100.167,120.5 99.8333,120.5 99.5,120.5C 98.5178,119.859 97.5178,119.193 96.5,118.5C 95.5159,121.428 95.1826,124.428 95.5,127.5C 94.71,126.391 94.21,125.058 94,123.5C 93.5065,125.134 93.3398,126.801 93.5,128.5C 93.5,129.167 93.5,129.833 93.5,130.5C 92.7784,130.082 92.2784,129.416 92,128.5C 91.6012,128.728 91.4346,129.062 91.5,129.5C 90.8333,129.5 90.1667,129.5 89.5,129.5C 89.2155,127.585 89.5489,125.919 90.5,124.5C 90.281,125.675 90.6143,126.675 91.5,127.5C 91.8333,126.833 92.1667,126.167 92.5,125.5C 92.2528,124.287 91.5862,123.62 90.5,123.5C 89.9094,122.849 89.2427,122.182 88.5,121.5C 88.6236,120.893 88.9569,120.56 89.5,120.5C 90.5,120.5 91.5,120.5 92.5,120.5C 92.3505,119.448 92.5172,118.448 93,117.5C 93.3333,119.167 93.6667,120.833 94,122.5C 93.6649,114.935 95.6649,113.935 100,119.5C 104.335,113.935 106.335,114.935 106,122.5C 106.333,120.833 106.667,119.167 107,117.5C 107.483,118.448 107.649,119.448 107.5,120.5C 108.5,120.5 109.5,120.5 110.5,120.5C 110.622,116.162 110.955,115.828 111.5,119.5C 113.179,119.285 114.179,119.952 114.5,121.5 Z"/></g>
<g><path style="opacity:1" fill="#7e7e7e" d="M 83.5,117.5 C 82.71,118.609 82.21,119.942 82,121.5C 81.3224,119.402 81.4891,117.402 82.5,115.5C 83.29,114.391 83.79,113.058 84,111.5C 84.7891,113.712 84.6225,115.712 83.5,117.5 Z"/></g>
<g><path style="opacity:1" fill="#838383" d="M 117.5,115.5 C 118.511,117.402 118.678,119.402 118,121.5C 117.79,119.942 117.29,118.609 116.5,117.5C 115.378,115.712 115.211,113.712 116,111.5C 116.21,113.058 116.71,114.391 117.5,115.5 Z"/></g>
<g><path style="opacity:1" fill="#3b3b3b" d="M 109.5,109.5 C 107.507,111.958 105.174,112.125 102.5,110C 104.81,109.503 107.143,109.337 109.5,109.5 Z"/></g>
<g><path style="opacity:1" fill="#383837" d="M 112.5,121.5 C 112.179,122.817 111.846,124.151 111.5,125.5C 111.439,127.721 112.105,128.054 113.5,126.5C 116.508,126.825 119.508,126.825 122.5,126.5C 122.543,130.893 122.043,131.226 121,127.5C 120.667,130.167 120.333,132.833 120,135.5C 119.667,133.833 119.333,132.167 119,130.5C 117.961,131.244 117.461,132.244 117.5,133.5C 116.837,131.958 116.17,130.291 115.5,128.5C 115.12,130.021 114.954,131.687 115,133.5C 113.384,132.199 111.884,132.199 110.5,133.5C 109.849,134.091 109.182,134.757 108.5,135.5C 102.833,134.167 97.1667,134.167 91.5,135.5C 90.7025,135.043 90.3691,134.376 90.5,133.5C 91.3764,133.631 92.0431,133.298 92.5,132.5C 91.8728,131.583 91.5394,130.583 91.5,129.5C 91.4346,129.062 91.6012,128.728 92,128.5C 92.2784,129.416 92.7784,130.082 93.5,130.5C 94.032,133.46 94.6987,133.793 95.5,131.5C 95.8333,131.5 96.1667,131.5 96.5,131.5C 97.391,132.11 98.391,132.443 99.5,132.5C 99.5,133.167 99.8333,133.5 100.5,133.5C 101.778,133.218 102.778,132.551 103.5,131.5C 103.833,131.5 104.167,131.5 104.5,131.5C 104.393,133.379 104.893,133.712 106,132.5C 106.49,131.207 106.657,129.873 106.5,128.5C 107.167,128.5 107.5,128.167 107.5,127.5C 109.176,126.817 109.843,125.483 109.5,123.5C 110.469,122.691 111.302,121.691 112,120.5C 112.399,120.728 112.565,121.062 112.5,121.5 Z"/></g>
<g><path style="opacity:1" fill="#b1b1b1" d="M 103.5,131.5 C 102.778,132.551 101.778,133.218 100.5,133.5C 100.5,132.167 100.5,130.833 100.5,129.5C 102.179,129.285 103.179,129.952 103.5,131.5 Z"/></g>
<g><path style="opacity:1" fill="#bfbfbe" d="M 99.5,132.5 C 98.391,132.443 97.391,132.11 96.5,131.5C 96.8212,129.952 97.8212,129.285 99.5,129.5C 99.5,130.5 99.5,131.5 99.5,132.5 Z"/></g>
<g><path style="opacity:1" fill="#c5c5c5" d="M 111.5,128.5 C 113.465,128.948 113.798,129.948 112.5,131.5C 111.614,130.675 111.281,129.675 111.5,128.5 Z"/></g>
<g><path style="opacity:1" fill="#f2f2f2" d="M 108.5,129.5 C 110.973,129.947 111.14,130.947 109,132.5C 108.517,131.552 108.351,130.552 108.5,129.5 Z"/></g>
<g><path style="opacity:1" fill="#e2e2e2" d="M 106.5,128.5 C 106.657,129.873 106.49,131.207 106,132.5C 104.893,133.712 104.393,133.379 104.5,131.5C 104.427,129.973 105.094,128.973 106.5,128.5 Z"/></g>
<g><path style="opacity:1" fill="#e2e2e1" d="M 93.5,128.5 C 94.9063,128.973 95.573,129.973 95.5,131.5C 94.6987,133.793 94.032,133.46 93.5,130.5C 93.5,129.833 93.5,129.167 93.5,128.5 Z"/></g>
<g><path style="opacity:1" fill="#2b7b9b" d="M 65.5,130.5 C 66.525,130.897 66.6917,131.563 66,132.5C 64.8867,134.329 63.3867,135.163 61.5,135C 63.0414,133.629 64.3747,132.129 65.5,130.5 Z"/></g>
<g><path style="opacity:1" fill="#888888" d="M 89.5,133.5 C 88.5,133.5 87.5,133.5 86.5,133.5C 86.6602,135.199 86.4935,136.866 86,138.5C 84.5336,137.011 83.367,134.678 82.5,131.5C 83.1577,130.602 83.8243,129.602 84.5,128.5C 84.8797,130.021 85.0464,131.687 85,133.5C 86.6155,132.199 88.1155,132.199 89.5,133.5 Z"/></g>
<g><path style="opacity:1" fill="#8c8c8c" d="M 117.5,133.5 C 116.841,136.408 116.007,136.742 115,134.5C 113.992,139.541 113.492,139.208 113.5,133.5C 112.5,133.5 111.5,133.5 110.5,133.5C 111.884,132.199 113.384,132.199 115,133.5C 114.954,131.687 115.12,130.021 115.5,128.5C 116.17,130.291 116.837,131.958 117.5,133.5 Z"/></g>
<g><path style="opacity:1" fill="#3088ac" d="M 130.5,136.5 C 132.496,135.312 133.329,135.979 133,138.5C 132.292,137.619 131.458,136.953 130.5,136.5 Z"/></g>
<g><path style="opacity:1" fill="#3493b9" d="M 67.5,134.5 C 68.5593,136.07 68.0593,137.403 66,138.5C 65.7003,136.934 66.2003,135.601 67.5,134.5 Z"/></g>
<g><path style="opacity:1" fill="#3596be" d="M 71.5,138.5 C 72.5593,140.07 72.0593,141.403 70,142.5C 69.7003,140.934 70.2003,139.601 71.5,138.5 Z"/></g>
<g><path style="opacity:1" fill="#3088ab" d="M 127.5,138.5 C 129.446,139.254 130.279,140.588 130,142.5C 128.519,141.529 127.685,140.196 127.5,138.5 Z"/></g>
<g><path style="opacity:1" fill="#2a7898" d="M 121.5,140.5 C 122.077,139.227 122.743,139.227 123.5,140.5C 124.248,142.332 125.248,143.999 126.5,145.5C 126.167,145.833 125.833,146.167 125.5,146.5C 124.143,144.435 122.81,142.435 121.5,140.5 Z"/></g>
<g><path style="opacity:1" fill="#3088ad" d="M 76.5,139.5 C 77.0431,139.56 77.3764,139.893 77.5,140.5C 76.081,142.336 74.9143,144.336 74,146.5C 73.6826,143.793 74.5159,141.46 76.5,139.5 Z"/></g>
<g><path style="opacity:1" fill="#318aaf" d="M 80.5,143.5 C 81.0967,143.735 81.4301,144.235 81.5,145C 80.8037,146.893 79.9704,148.726 79,150.5C 78.8648,148.078 79.3648,145.745 80.5,143.5 Z"/></g>
<g><path style="opacity:1" fill="#2f85a8" d="M 118.5,143.5 C 120.27,144.856 121.603,146.689 122.5,149C 120.156,148.235 118.823,146.402 118.5,143.5 Z"/></g>
<g><path style="opacity:1" fill="#2c7d9e" d="M 114.5,148.5 C 116.185,149.184 117.185,150.517 117.5,152.5C 117.167,152.833 116.833,153.167 116.5,153.5C 115.438,151.978 114.771,150.312 114.5,148.5 Z"/></g>
<g><path style="opacity:1" fill="#2c7e9f" d="M 83.5,148.5 C 84.3764,148.369 85.0431,148.702 85.5,149.5C 82.6949,156.144 82.0283,155.81 83.5,148.5 Z"/></g>
<g><path style="opacity:1" fill="#276f8d" d="M 110.5,151.5 C 112.441,153.011 112.941,155.011 112,157.5C 110.681,155.75 110.181,153.75 110.5,151.5 Z"/></g>
<g><path style="opacity:1" fill="#3494bb" d="M 88.5,152.5 C 89.3764,152.369 90.0431,152.702 90.5,153.5C 89.846,155.115 89.346,156.782 89,158.5C 88.5045,156.527 88.3379,154.527 88.5,152.5 Z"/></g>
<g><path style="opacity:1" fill="#256884" d="M 93.5,151.5 C 94.7773,152.694 95.4439,154.36 95.5,156.5C 95.5877,158.712 95.0877,160.712 94,162.5C 93.5014,158.848 93.3347,155.182 93.5,151.5 Z"/></g>
<g><path style="opacity:1" fill="#2a7796" d="M 104.5,151.5 C 105.222,151.918 105.722,152.584 106,153.5C 106.667,156.167 106.667,158.833 106,161.5C 104.684,158.312 104.184,154.978 104.5,151.5 Z"/></g>
</svg>
